Coordinates
version=1
nRows=7
nColumns=33
inDegrees=yes

Units are S.I. units (second, meters, Newtons, ...)
Angles are in degrees.

endheader
time	ground_thorax_rot_x	ground_thorax_rot_y	ground_thorax_rot_z	ground_thorax_tx	ground_thorax_ty	ground_thorax_tz	clav_prot_r	clav_elev_r	scapula_abduction_r	scapula_elevation_r	scapula_upward_rot_r	scapula_winging_r	shoulder_elv_r	plane_of_elev_r	axial_rot_r	elbow_flexion_r	pro_sup_r	wrist_flex_r	wrist_dev_r	clav_prot_l	clav_elev_l	scapula_abduction_l	scapula_elevation_l	scapula_upward_rot_l	scapula_winging_l	shoulder_elv_l	plane_of_elev_l	axial_rot_l	elbow_flexion_l	pro_sup_l	wrist_flex_l	wrist_dev_l
      8.65000000	     24.62515810	     31.68980607	     47.07599106	    -52.80595289	    837.64356773	    -42.48370942	     13.48898565	     34.92824302	     29.50203338	     45.00000000	    -45.00000000	  -1886.57584563	  -1726.69394325	     24.32758686	    179.99999979	   1081.13798510	   -182.26899154	     14.27651215	     14.94039403	     -8.40753592	    -45.00000000	    -40.05254510	     45.00000000	    -45.00000000	  -3856.56081310	  -2080.22111257	     27.13173260	     35.54461885	    -10.45404522	     40.16865601	     14.31813308	    -18.32823327
      8.66000000	     24.78773073	     31.52241309	     46.77233033	    -54.41597390	    838.44356096	    -42.50235260	     13.44574451	     34.89164941	     29.52960585	     45.00000000	    -45.00000000	  -1886.67454607	  -1726.68152799	     24.40993282	    179.99999979	   1081.16020800	   -182.46660543	     14.32957976	     15.04164051	     -8.34372806	    -45.00000000	    -40.21797861	     45.00000000	    -45.00000000	  -3856.42109704	  -2080.22695990	     27.13532162	     35.39400035	    -10.52815084	     39.97415313	     14.44643138	    -18.47761839
      8.67000000	     24.85755279	     31.53353336	     46.61534779	    -56.02679866	    839.21222149	    -42.51749757	     13.45412741	     34.86978201	     29.42167651	     45.00000000	    -45.00000000	  -1886.76258044	  -1726.57902293	     24.39118207	    179.99999979	   1081.12944613	   -182.68534015	     14.36576154	     15.02095770	     -8.24936059	    -45.00000000	    -40.10980083	     45.00000000	    -45.00000000	  -3856.40616924	  -2080.07814939	     27.15573894	     35.36791084	    -10.55457676	     39.80432727	     14.42281602	    -18.45787563
      8.68000000	     25.07631744	     31.41001952	     46.14434604	    -57.63137239	    839.94531730	    -42.52903782	     13.38136774	     34.86109751	     29.47101236	     45.00000000	    -45.00000000	  -1886.76365521	  -1726.62958333	     24.36778724	    179.99999979	   1081.32456783	   -182.90192850	     14.37972158	     15.09916060	     -8.20099129	    -45.00000000	    -40.43433511	     45.00000000	    -45.00000000	  -3856.38626391	  -2080.17883125	     27.11289201	     35.10176512	    -10.56640793	     39.63396405	     14.48302102	    -18.58480867
      8.69000000	     25.02248339	     31.39702849	     46.29756255	    -59.23653667	    840.64587814	    -42.53699353	     13.43357727	     34.75350349	     29.36298849	     45.00000000	    -45.00000000	  -1886.87915130	  -1726.47732378	     24.38336780	    179.99999979	   1081.24727256	   -183.17283430	     14.39784787	     15.10388891	     -8.12916204	    -45.00000000	    -40.22117119	     45.00000000	    -45.00000000	  -3856.24712408	  -2079.95960655	     27.05577920	     35.12982675	    -10.59467424	     39.49384760	     14.48737639	    -18.60219076
      8.70000000	     25.21204098	     31.28896002	     45.94129869	    -60.83616322	    841.31234523	    -42.54174816	     13.33440390	     34.80987726	     29.38320227	     45.00000000	    -45.00000000	  -1886.96205801	  -1726.50541353	     24.34193446	    179.99999979	   1081.20381007	   -183.46898914	     14.49557042	     15.12304489	     -7.99222939	    -45.00000000	    -40.29897209	     45.00000000	    -45.00000000	  -3856.14707438	  -2080.04767677	     27.06737719	     34.93583793	    -10.50117413	     39.33937245	     14.51675812	    -18.73914870
      8.71000000	     25.35639369	     31.16396952	     45.63571750	    -62.43307471	    841.94836927	    -42.54371831	     13.33225585	     34.73862618	     29.29297683	     45.00000000	    -45.00000000	  -1887.01923836	  -1726.44874450	     24.46399727	    179.99999979	   1081.30902650	   -183.73545726	     14.48582310	     15.23242130	     -8.00520989	    -45.00000000	    -40.41963546	     45.00000000	    -45.00000000	  -3856.07909558	  -2080.02827048	     27.04255533	     34.88967807	    -10.56154928	     39.22553607	     14.54910681	    -18.82783164
